<svg xmlns="http://www.w3.org/2000/svg" xmlns:xlink="http://www.w3.org/1999/xlink" xmlns:serif="http://www.serif.com/" width="100%" height="100%" viewBox="0 0 5334 5334" version="1.1" xml:space="preserve" style="fill-rule:evenodd;clip-rule:evenodd;stroke-linejoin:round;stroke-miterlimit:2;" fill="#c61e26">
    <g transform="matrix(4.16667,0,0,4.16667,0,0)">
        <g transform="matrix(1.71019,0,0,1.01361,-431.742,-32.2196)">
            <path d="M648.685,698.719L607.009,698.719L607.009,906.415L537.321,906.415L537.321,495.556L607.009,495.556L607.009,637.229L646.636,637.229C658.933,637.229 668.726,635.521 676.014,632.105C683.301,628.689 688.995,623.793 693.094,617.416C696.738,611.04 699.243,603.183 700.609,593.845C701.976,584.508 702.659,573.691 702.659,561.393C702.659,549.095 701.976,538.277 700.609,528.94C699.243,519.603 696.51,511.518 692.411,504.686C683.757,491.933 667.36,485.556 643.219,485.556L470.344,485.556L470.344,906.415L400.656,906.415L400.656,485.556L277.711,485.556L277.711,419.968L649.368,419.968C654.187,419.968 658.865,420.132 663.4,420.461L662.349,419.968L836.301,419.968C858.619,419.968 877.635,423.384 893.349,430.216C909.063,437.048 921.93,446.157 931.951,457.544C941.971,468.931 949.145,482.026 953.472,496.829C957.799,511.632 959.963,527.004 959.963,542.946L959.963,560.709C959.963,573.918 958.938,585.077 956.888,594.187C954.839,603.296 951.764,611.267 947.665,618.099C939.922,630.853 928.079,641.784 912.138,650.894C928.535,658.637 940.605,670.024 948.348,685.054C956.091,700.085 959.963,720.581 959.963,746.544L959.963,773.872C959.963,816.687 949.601,849.481 928.876,872.255C908.152,895.029 875.016,906.415 829.469,906.415L796.654,906.415L727.072,698.719L717.093,698.719L715.533,694.149L717.08,698.719L716.525,698.719L786.107,906.415L713.59,906.415L648.685,698.719ZM804.19,680.955L804.19,836.728L834.251,836.728C848.371,836.728 859.416,834.678 867.387,830.579C875.358,826.479 881.393,820.786 885.492,813.498C889.592,806.211 892.097,797.557 893.008,787.536C893.919,777.516 894.374,766.584 894.374,754.742C894.374,742.444 893.691,731.741 892.325,722.631C890.958,713.522 888.225,705.778 884.126,699.402C879.571,693.025 873.422,688.357 865.679,685.396C857.936,682.435 847.688,680.955 834.935,680.955L804.19,680.955ZM804.19,485.556L804.19,619.466L835.618,619.466C858.847,619.466 874.447,613.659 882.418,602.044C890.389,590.429 894.374,573.463 894.374,551.145C894.374,529.282 889.933,512.885 881.052,501.953C872.17,491.022 856.114,485.556 832.885,485.556L804.19,485.556Z"/>
        </g>
    </g>
</svg>